<?xml version="1.0" standalone="no"?>
<!DOCTYPE svg PUBLIC "-//W3C//DTD SVG 20010904//EN"
 "http://www.w3.org/TR/2001/REC-SVG-20010904/DTD/svg10.dtd">
<svg version="1.0" xmlns="http://www.w3.org/2000/svg"
 width="474.000000pt" height="474.000000pt" viewBox="0 0 474.000000 474.000000"
 preserveAspectRatio="xMidYMid meet">
<metadata>
Created by potrace 1.11, written by Peter Selinger 2001-2013
</metadata>
<g transform="translate(0.000000,474.000000) scale(0.100000,-0.100000)"
fill="#000000" stroke="none">
<path d="M2080 4600 l0 -140 145 0 145 0 0 140 0 140 -145 0 -145 0 0 -140z"/>
<path d="M1780 4280 l0 -140 -150 0 -150 0 0 -145 0 -145 -145 0 -145 0 0
-125 0 -125 270 0 270 0 0 145 0 145 170 0 170 0 0 265 0 265 -145 0 -145 0 0
-140z"/>
<path d="M2670 4005 l0 -135 145 0 145 0 0 135 0 135 -145 0 -145 0 0 -135z"/>
<path d="M1780 3695 l0 -145 -295 0 -295 0 0 -590 0 -590 120 0 120 0 0 465 0
465 470 0 470 0 0 125 0 125 -150 0 -150 0 0 145 0 145 -145 0 -145 0 0 -145z"/>
<path d="M2970 3715 l0 -115 145 0 145 0 0 115 0 115 -145 0 -145 0 0 -115z"/>
<path d="M2670 3425 l0 -125 170 0 170 0 0 -145 0 -145 150 0 150 0 0 -320 0
-320 120 0 120 0 0 440 0 440 -145 0 -145 0 0 150 0 150 -295 0 -295 0 0 -125z"/>
<path d="M1480 2660 l0 -590 125 0 125 0 0 470 0 470 495 0 495 0 0 -150 0
-150 145 0 145 0 0 -320 0 -320 125 0 125 0 0 445 0 445 -150 0 -150 0 0 145
0 145 -740 0 -740 0 0 -590z"/>
<path d="M1780 2370 l0 -590 590 0 590 0 0 440 0 440 -145 0 -145 0 0 150 0
150 -445 0 -445 0 0 -590z m640 195 l0 -145 150 0 150 0 0 -200 0 -200 -350 0
-350 0 0 345 0 345 200 0 200 0 0 -145z"/>
<path d="M2070 2365 l0 -295 300 0 300 0 0 150 0 150 -150 0 -150 0 0 145 0
145 -150 0 -150 0 0 -295z"/>
<path d="M330 1754 c-157 -42 -277 -176 -311 -348 -30 -147 54 -326 196 -420
88 -59 85 -58 705 -200 261 -60 1584 -366 2817 -652 105 -24 200 -47 210 -51
12 -4 9 4 -13 28 -52 58 -72 93 -99 175 -44 139 -33 250 40 394 51 100 153
176 285 211 53 14 61 18 40 23 -14 3 -854 197 -1866 431 -1274 294 -1858 425
-1895 424 -30 0 -79 -7 -109 -15z"/>
<path d="M3376 1569 c-473 -109 -861 -201 -864 -204 -3 -3 -3 -7 -1 -9 2 -2
416 -99 919 -215 1062 -245 1029 -240 1126 -168 179 131 233 363 133 559 -30
58 -119 150 -177 181 -64 35 -153 57 -222 56 -34 0 -381 -76 -914 -200z"/>
<path d="M4210 869 c-128 -25 -248 -122 -309 -248 -34 -73 -36 -81 -36 -181 0
-85 5 -116 23 -160 44 -111 141 -207 252 -253 45 -18 74 -22 165 -22 105 0
113 2 180 34 227 111 318 379 204 603 -30 59 -119 150 -179 182 -85 47 -202
64 -300 45z"/>
<path d="M279 846 c-71 -29 -102 -51 -163 -115 -215 -231 -113 -611 192 -712
53 -18 80 -20 156 -17 136 7 193 32 287 127 104 103 123 153 124 311 0 109 -2
119 -32 182 -17 36 -53 88 -80 116 -43 44 -55 51 -113 61 -36 7 -119 26 -184
42 -65 16 -122 29 -125 29 -3 0 -31 -11 -62 -24z"/>
<path d="M833 739 c10 -13 34 -58 54 -99 32 -66 37 -86 41 -170 7 -155 -29
-263 -122 -359 -50 -52 -50 -53 -21 -47 17 4 366 84 777 179 l747 173 -297 68
c-504 115 -1156 267 -1177 273 -19 5 -19 5 -2 -18z"/>
</g>
</svg>
